<?xml version="1.0" encoding="UTF-8"?>
<svg width="15px" height="15px" viewBox="0 0 15 15" version="1.1" xmlns="http://www.w3.org/2000/svg" xmlns:xlink="http://www.w3.org/1999/xlink">
    <!-- Generator: Sketch 49.2 (51160) - http://www.bohemiancoding.com/sketch -->
    <title>tuichudenglu</title>
    <desc>Created with Sketch.</desc>
    <defs></defs>
    <g id="Page-1" stroke="none" stroke-width="1" fill="none" fill-rule="evenodd">
        <g id="商家收款" transform="translate(-1525.000000, -23.000000)" fill="#666">
            <g id="Group-16" transform="translate(1455.000000, 20.000000)">
                <g id="退出登录" transform="translate(70.000000, 0.000000)">
                    <g id="tuichudenglu" transform="translate(0.000000, 3.000000)">
                        <g>
                            <path d="M3.019425,12.82545 L3.019425,2.42445 L9.968925,2.42445 L9.968925,1.38495 C9.968925,0.76095 9.458175,0.2502 8.834175,0.2502 L1.884675,0.2502 C1.260675,0.2502 0.749925,0.76095 0.749925,1.38495 L0.749925,13.8657 C0.749925,14.4897 1.260675,14.9997 1.884675,14.9997 L8.834175,14.9997 C9.458175,14.9997 9.968925,14.4897 9.968925,13.8657 L9.968925,12.82545 L3.019425,12.82545 Z" id="Fill-2"></path>
                            <polygon id="Fill-4" points="6.423 8.76 10.96125 8.76 10.96125 6.4905 6.423 6.4905"></polygon>
                            <polygon id="Fill-6" points="10.9614 4.415775 10.9614 10.834275 14.17065 7.625025"></polygon>
                        </g>
                    </g>
                </g>
            </g>
        </g>
    </g>
</svg>